<svg width="23" height="23" viewBox="0 0 23 23" fill="none" xmlns="http://www.w3.org/2000/svg">
<g clip-path="url(#clip0_252_1637)">
<path d="M9.41239 2.14471C8.90693 3.24171 8.62502 4.46293 8.62502 5.75C8.62502 10.5135 12.4865 14.375 17.25 14.375C18.5371 14.375 19.7584 14.0931 20.8553 13.5876C19.9025 17.8765 16.0758 21.0833 11.5 21.0833C6.20729 21.0833 1.91669 16.7927 1.91669 11.5C1.91669 6.92427 5.12356 3.09753 9.41239 2.14471ZM17.4074 2.19558L18.2084 2.39583V3.35417L17.4074 3.55442C16.7206 3.7261 16.1844 4.26228 16.0128 4.949L15.8125 5.75H14.8542L14.6539 4.949C14.4823 4.26228 13.9461 3.7261 13.2593 3.55442L12.4584 3.35417V2.39583L13.2593 2.19558C13.9461 2.0239 14.4823 1.48772 14.6539 0.801003L14.8542 0H15.8125L16.0128 0.801003C16.1844 1.48772 16.7206 2.0239 17.4074 2.19558ZM22.199 6.98725L23 7.1875V8.14583L22.199 8.34609C21.5123 8.51776 20.9761 9.05395 20.8045 9.74069L20.6042 10.5417H19.6459L19.4456 9.74069C19.2739 9.05395 18.7377 8.51776 18.051 8.34609L17.25 8.14583V7.1875L18.051 6.98725C18.7377 6.81557 19.2739 6.27938 19.4456 5.59267L19.6459 4.79167H20.6042L20.8045 5.59267C20.9761 6.27938 21.5123 6.81557 22.199 6.98725Z" fill="#00B2CA"/>
</g>
<defs>
<clipPath id="clip0_252_1637">
<rect width="23" height="23" fill="white"/>
</clipPath>
</defs>
</svg>
