<svg width="89" height="89" viewBox="0 0 89 89" fill="none" xmlns="http://www.w3.org/2000/svg">
<path d="M36.9128 8.19774C41.8582 7.16252 47.0243 7.12985 52.0832 8.18754C52.7396 12.4875 55.272 16.4611 59.3322 18.8052C63.3921 21.1492 68.0998 21.3558 72.1516 19.774C75.5973 23.6266 78.152 28.1168 79.7281 32.9172C76.3368 35.6356 74.1656 39.8128 74.1656 44.4971C74.1656 49.1845 76.3394 53.3638 79.734 56.082C78.9504 58.4568 77.9136 60.7878 76.6138 63.0388C75.314 65.2901 73.814 67.3534 72.149 69.2195C68.0976 67.6386 63.3914 67.8459 59.3322 70.1892C55.2753 72.5314 52.7436 76.5008 52.0847 80.7969C47.1396 81.8319 41.9735 81.8645 36.9144 80.8069C36.2582 76.5071 33.7255 72.5332 29.6655 70.1892C25.6055 67.8452 20.8979 67.6386 16.8459 69.2206C13.4003 65.368 10.8456 60.8776 9.26951 56.0771C12.6607 53.3589 14.8322 49.1815 14.8322 44.4971C14.8322 39.8102 12.6582 35.6308 9.26361 32.9124C10.0471 30.5376 11.084 28.2068 12.3837 25.9556C13.6834 23.7044 15.1835 21.641 16.8485 19.775C20.8999 21.3557 25.6063 21.1487 29.6655 18.8052C33.7223 16.4629 36.2542 12.4938 36.9128 8.19774ZM44.4989 55.6221C50.6429 55.6221 55.6239 50.6415 55.6239 44.4971C55.6239 38.3532 50.6429 33.3722 44.4989 33.3722C38.3546 33.3722 33.3738 38.3532 33.3738 44.4971C33.3738 50.6415 38.3546 55.6221 44.4989 55.6221Z" fill="#00B2CA"/>
</svg>
