<svg width="23" height="23" viewBox="0 0 23 23" fill="none" xmlns="http://www.w3.org/2000/svg">
<path d="M11.5 17.2499C8.32434 17.2499 5.74998 14.6755 5.74998 11.4999C5.74998 8.32428 8.32434 5.74992 11.5 5.74992C14.6756 5.74992 17.25 8.32428 17.25 11.4999C17.25 14.6755 14.6756 17.2499 11.5 17.2499ZM11.5 15.3333C13.617 15.3333 15.3333 13.617 15.3333 11.4999C15.3333 9.38283 13.617 7.66659 11.5 7.66659C9.38289 7.66659 7.66665 9.38283 7.66665 11.4999C7.66665 13.617 9.38289 15.3333 11.5 15.3333ZM10.5416 0.958252H12.4583V3.83325H10.5416V0.958252ZM10.5416 19.1666H12.4583V22.0416H10.5416V19.1666ZM3.36825 4.72348L4.72354 3.36819L6.75647 5.40112L5.40119 6.75641L3.36825 4.72348ZM16.2434 17.5988L17.5988 16.2434L19.6317 18.2764L18.2765 19.6317L16.2434 17.5988ZM18.2765 3.36819L19.6317 4.72348L17.5988 6.75641L16.2434 5.40112L18.2765 3.36819ZM5.40119 16.2434L6.75647 17.5988L4.72354 19.6317L3.36825 18.2764L5.40119 16.2434ZM22.0416 10.5416V12.4583H19.1666V10.5416H22.0416ZM3.83331 10.5416V12.4583H0.958313V10.5416H3.83331Z" fill="white"/>
</svg>
