<svg xmlns="http://www.w3.org/2000/svg" xmlns:xlink="http://www.w3.org/1999/xlink" width="500" zoomAndPan="magnify" viewBox="0 0 375 374.999991" height="500" preserveAspectRatio="xMidYMid meet" version="1.0"><defs><clipPath id="1b9c0af78a"><path d="M 0.367188 0 L 322.632812 0 L 322.632812 375 L 0.367188 375 Z M 0.367188 0 " clip-rule="nonzero"/></clipPath><clipPath id="07b4724337"><path d="M 161.5 0 L 322.632812 93.75 L 322.632812 281.25 L 161.5 375 L 0.367188 281.25 L 0.367188 93.75 Z M 161.5 0 " clip-rule="nonzero"/></clipPath><clipPath id="96016be07c"><path d="M 0.367188 0 L 322.632812 0 L 322.632812 375 L 0.367188 375 Z M 0.367188 0 " clip-rule="nonzero"/></clipPath><clipPath id="54472a347c"><path d="M 161.5 0 L 322.632812 93.75 L 322.632812 281.25 L 161.5 375 L 0.367188 281.25 L 0.367188 93.75 Z M 161.5 0 " clip-rule="nonzero"/></clipPath><clipPath id="360f1f2913"><rect x="0" width="323" y="0" height="375"/></clipPath><clipPath id="99eab7317c"><path d="M 28.207031 61.960938 L 156 61.960938 L 156 312.917969 L 28.207031 312.917969 Z M 28.207031 61.960938 " clip-rule="nonzero"/></clipPath><clipPath id="38bf1e5291"><path d="M 167 61.960938 L 294.046875 61.960938 L 294.046875 312.917969 L 167 312.917969 Z M 167 61.960938 " clip-rule="nonzero"/></clipPath><clipPath id="770f32c7ab"><rect x="0" width="323" y="0" height="375"/></clipPath></defs><g transform="matrix(1, 0, 0, 1, 26, 0)"><g clip-path="url(#770f32c7ab)"><g clip-path="url(#1b9c0af78a)"><g clip-path="url(#07b4724337)"><g><g clip-path="url(#360f1f2913)"><g clip-path="url(#96016be07c)"><g clip-path="url(#54472a347c)"><path fill="#00b2ca" d="M 0.367188 0 L 322.632812 0 L 322.632812 375.136719 L 0.367188 375.136719 Z M 0.367188 0 " fill-opacity="1" fill-rule="nonzero"/></g></g></g></g></g></g><g clip-path="url(#99eab7317c)"><path fill="#fdfcfd" d="M 102.15625 75.433594 C 102.542969 75.433594 102.933594 75.464844 103.324219 75.464844 C 108.261719 67.382812 117.148438 61.9375 127.265625 61.9375 C 142.648438 61.9375 155.25 74.539062 155.25 89.921875 L 155.25 285.089844 C 155.25 300.472656 142.648438 313.074219 127.265625 313.074219 C 112.539062 313.074219 100.359375 301.523438 99.34375 287.066406 C 96.050781 288.203125 92.492188 288.832031 88.777344 288.832031 C 70.972656 288.832031 56.542969 274.402344 56.542969 256.597656 C 56.542969 253.363281 57.023438 250.25 57.917969 247.289062 C 40.617188 240.941406 28.289062 224.335938 28.289062 204.851562 C 28.289062 193.597656 32.390625 183.332031 39.152344 175.429688 C 35.769531 170.101562 33.792969 163.789062 33.792969 157.023438 C 33.792969 138.046875 49.175781 122.660156 68.152344 122.660156 C 68.871094 122.660156 69.589844 122.691406 70.304688 122.71875 C 68.691406 118.738281 67.789062 114.371094 67.789062 109.789062 C 67.796875 90.820312 83.175781 75.433594 102.15625 75.433594 Z M 102.15625 75.433594 " fill-opacity="1" fill-rule="evenodd"/></g><g clip-path="url(#38bf1e5291)"><path fill="#fdfcfd" d="M 220.523438 75.433594 C 215.617188 67.355469 205.828125 61.9375 195.710938 61.9375 C 180.328125 61.9375 167.726562 74.539062 167.726562 89.921875 C 167.726562 154.988281 167.726562 220.050781 167.726562 285.089844 C 167.726562 300.472656 180.328125 313.074219 195.710938 313.074219 C 210.3125 313.074219 222.375 301.761719 223.601562 287.484375 C 226.296875 288.171875 228.0625 288.230469 228.0625 288.230469 C 230.039062 288.617188 232.101562 288.824219 234.199219 288.824219 C 252.003906 288.824219 266.433594 274.398438 266.433594 256.589844 C 266.433594 253.449219 265.988281 250.425781 265.144531 247.582031 C 282.597656 239.839844 294.6875 225.113281 294.6875 204.851562 C 294.6875 193.78125 290.707031 183.628906 284.121094 175.792969 C 287.144531 170.042969 289.179688 163.554688 289.179688 157.027344 C 289.179688 138.054688 273.796875 122.667969 254.820312 122.667969 C 254.101562 122.667969 253.378906 122.699219 252.667969 122.726562 C 254.28125 118.746094 255.179688 114.375 255.179688 109.792969 C 255.179688 90.21875 239.859375 74.804688 220.523438 75.433594 Z M 200.921875 183.601562 C 207.984375 183.601562 213.730469 189.351562 213.730469 196.410156 C 213.730469 203.503906 207.980469 209.21875 200.921875 209.21875 C 196.3125 209.21875 192.273438 206.796875 190 203.113281 C 176.347656 209.726562 175.363281 233.042969 175.304688 237.863281 L 175.304688 285.089844 C 175.304688 296.285156 184.496094 305.503906 195.714844 305.503906 C 206.371094 305.503906 215.347656 297.152344 216.09375 286.53125 L 216.246094 284.675781 C 210.949219 281.921875 205.019531 277.046875 201.011719 268.394531 L 200.980469 268.394531 C 193.914062 268.394531 188.171875 262.675781 188.171875 255.585938 C 188.171875 248.519531 193.921875 242.777344 200.980469 242.777344 C 208.039062 242.777344 213.789062 248.523438 213.789062 255.585938 C 213.789062 259.207031 212.289062 262.46875 209.867188 264.800781 C 222.105469 290.871094 258.890625 284.316406 258.890625 256.601562 C 258.890625 254.476562 258.589844 252.351562 258.054688 250.289062 C 252.335938 252.117188 247.816406 252.679688 239.765625 252.472656 C 237.582031 256.363281 233.394531 259 228.605469 259 C 221.539062 259 215.796875 253.28125 215.796875 246.191406 C 215.796875 239.125 221.546875 233.382812 228.605469 233.382812 C 234.800781 233.382812 239.949219 237.785156 241.148438 243.617188 C 254.855469 244.1875 267.964844 237.632812 268.683594 237.273438 C 279.96875 230.570312 287.148438 218.324219 287.148438 204.855469 C 287.148438 196.773438 284.574219 188.996094 279.84375 182.558594 C 275.625 188.09375 269.335938 193.871094 260.242188 196.683594 C 258.894531 202.339844 253.839844 206.53125 247.765625 206.53125 C 240.699219 206.53125 234.984375 200.78125 234.984375 193.722656 C 234.984375 186.660156 240.699219 180.914062 247.765625 180.914062 C 252.339844 180.914062 256.351562 183.304688 258.597656 186.894531 C 273.472656 181.03125 279.753906 166.816406 279.992188 166.277344 C 281.070312 163.339844 281.609375 160.203125 281.609375 157.027344 C 281.609375 142.210938 269.605469 130.238281 254.820312 130.238281 C 254.25 130.238281 253.683594 130.238281 253.140625 130.269531 L 251.253906 130.386719 C 247.871094 137.691406 239.554688 148.015625 223.089844 155.828125 C 223.179688 156.367188 223.207031 156.90625 223.207031 157.441406 C 223.207031 164.535156 217.460938 170.25 210.398438 170.25 C 203.339844 170.25 197.589844 164.535156 197.589844 157.441406 C 197.589844 150.378906 203.339844 144.632812 210.398438 144.632812 C 213.570312 144.632812 216.472656 145.800781 218.722656 147.71875 C 232.789062 142.125 247.632812 125.84375 247.632812 109.800781 C 247.632812 95.3125 236.140625 83.523438 221.773438 83.011719 C 221.59375 88.96875 219.019531 99.382812 213.0625 106.117188 C 214.050781 107.945312 214.621094 110.039062 214.621094 112.253906 C 214.621094 119.320312 208.902344 125.0625 201.8125 125.0625 C 194.746094 125.0625 189.027344 119.316406 189.027344 112.253906 C 189.027344 105.195312 194.746094 99.445312 201.8125 99.445312 C 203.035156 99.445312 204.203125 99.628906 205.3125 99.925781 C 211.746094 91.726562 216.265625 80.410156 208.273438 73.980469 C 204.800781 71.167969 200.339844 69.578125 195.703125 69.519531 C 184.480469 69.339844 175.292969 78.710938 175.292969 89.929688 L 175.292969 205.550781 C 178.3125 201.089844 182.449219 197.375 188.160156 195.28125 C 188.742188 188.71875 194.246094 183.601562 200.921875 183.601562 Z M 200.921875 190.933594 C 203.941406 190.933594 206.429688 193.390625 206.429688 196.410156 C 206.429688 199.464844 203.949219 201.921875 200.921875 201.921875 C 197.894531 201.921875 195.410156 199.464844 195.410156 196.410156 C 195.410156 193.386719 197.898438 190.933594 200.921875 190.933594 Z M 200.980469 250.101562 C 204 250.101562 206.488281 252.558594 206.488281 255.578125 C 206.488281 258.632812 204.007812 261.089844 200.980469 261.089844 C 197.925781 261.089844 195.46875 258.632812 195.46875 255.578125 C 195.46875 252.558594 197.925781 250.101562 200.980469 250.101562 Z M 228.605469 240.703125 C 231.660156 240.703125 234.113281 243.160156 234.113281 246.179688 C 234.113281 246.511719 234.082031 246.839844 234.023438 247.140625 L 233.90625 247.617188 C 233.277344 249.953125 231.152344 251.691406 228.609375 251.691406 C 225.589844 251.691406 223.101562 249.234375 223.101562 246.179688 C 223.097656 243.160156 225.585938 240.703125 228.605469 240.703125 Z M 247.757812 188.210938 C 250.8125 188.210938 253.269531 190.695312 253.269531 193.722656 C 253.269531 196.746094 250.8125 199.230469 247.757812 199.230469 C 244.738281 199.230469 242.28125 196.746094 242.28125 193.722656 C 242.28125 190.695312 244.738281 188.210938 247.757812 188.210938 Z M 210.410156 151.964844 C 213.429688 151.964844 215.917969 154.421875 215.917969 157.441406 C 215.917969 160.496094 213.4375 162.953125 210.410156 162.953125 C 207.355469 162.953125 204.902344 160.496094 204.902344 157.441406 C 204.902344 154.421875 207.355469 151.964844 210.410156 151.964844 Z M 204.75 107.578125 L 204.960938 107.726562 C 204.902344 107.667969 204.808594 107.640625 204.75 107.578125 Z M 204.75 107.578125 L 204.632812 107.515625 L 204.601562 107.515625 L 204.394531 107.398438 L 204.335938 107.339844 L 204.304688 107.339844 L 204.214844 107.28125 L 204.148438 107.28125 L 204.058594 107.222656 L 203.96875 107.1875 L 203.9375 107.15625 L 203.847656 107.125 L 203.730469 107.066406 L 203.671875 107.066406 L 203.578125 107.035156 L 203.546875 107.035156 L 203.457031 107.003906 L 203.425781 106.96875 L 203.335938 106.9375 L 203.300781 106.9375 L 203.066406 106.875 L 203.046875 106.875 L 202.8125 106.8125 L 202.78125 106.8125 L 202.664062 106.777344 L 202.515625 106.777344 L 202.398438 106.746094 L 202.128906 106.746094 L 201.980469 106.714844 L 201.625 106.714844 L 201.566406 106.746094 L 201.234375 106.746094 L 201.175781 106.777344 L 200.996094 106.777344 L 200.964844 106.8125 L 200.875 106.8125 L 200.816406 106.84375 L 200.722656 106.84375 L 200.664062 106.875 L 200.605469 106.875 L 200.515625 106.90625 L 200.453125 106.90625 L 200.382812 106.949219 L 200.324219 106.949219 L 200.292969 106.980469 L 200.234375 106.980469 L 200.203125 107.011719 L 200.167969 107.011719 L 200.078125 107.046875 L 200.019531 107.046875 L 199.960938 107.078125 L 199.929688 107.078125 L 199.898438 107.109375 L 199.808594 107.140625 L 199.691406 107.203125 L 199.632812 107.238281 L 199.574219 107.269531 L 199.542969 107.269531 L 199.484375 107.300781 L 199.449219 107.300781 L 199.417969 107.332031 L 199.359375 107.363281 L 199.328125 107.363281 L 199.296875 107.398438 L 199.121094 107.492188 L 199.089844 107.523438 L 199.054688 107.523438 L 198.996094 107.582031 L 198.964844 107.582031 L 198.933594 107.613281 L 198.875 107.648438 L 198.816406 107.679688 L 198.757812 107.738281 L 198.699219 107.769531 L 198.644531 107.757812 L 198.554688 107.847656 L 198.523438 107.847656 L 198.464844 107.90625 L 198.433594 107.90625 L 198.402344 107.941406 L 198.34375 108 L 198.308594 108.03125 L 198.25 108.089844 L 198.21875 108.089844 L 198.128906 108.179688 L 198.070312 108.210938 L 198.039062 108.269531 L 197.949219 108.359375 L 197.917969 108.359375 L 197.882812 108.417969 L 197.824219 108.453125 L 197.824219 108.484375 L 197.792969 108.515625 L 197.734375 108.546875 L 197.734375 108.578125 C 196.867188 109.566406 196.328125 110.855469 196.328125 112.261719 C 196.328125 115.28125 198.785156 117.769531 201.804688 117.769531 C 204.859375 117.769531 207.398438 115.289062 207.316406 112.261719 L 207.316406 111.8125 L 207.28125 111.695312 L 207.28125 111.527344 L 207.25 111.410156 L 207.25 111.382812 L 207.1875 111.148438 L 207.1875 111.117188 C 207.1875 111.023438 207.15625 110.964844 207.128906 110.875 L 207.097656 110.757812 L 207.0625 110.609375 L 207.03125 110.492188 L 206.914062 110.257812 L 206.882812 110.140625 L 206.824219 110.023438 L 206.824219 109.992188 L 206.765625 109.902344 L 206.765625 109.867188 L 206.707031 109.777344 L 206.589844 109.539062 L 206.53125 109.421875 L 206.472656 109.332031 C 206.414062 109.238281 206.382812 109.179688 206.324219 109.121094 L 206.292969 109.089844 L 206.234375 109 L 206.234375 108.96875 L 206.175781 108.910156 L 206.117188 108.820312 L 205.902344 108.605469 C 205.785156 108.425781 205.632812 108.277344 205.457031 108.125 L 205.421875 108.09375 L 205.363281 108.0625 L 205.304688 108.003906 L 205.246094 107.972656 L 205.15625 107.882812 L 205.097656 107.847656 L 205.066406 107.789062 L 205.019531 107.757812 L 204.960938 107.726562 Z M 204.75 107.578125 " fill-opacity="1" fill-rule="evenodd"/></g></g></g></svg>