<svg width="20" height="20" viewBox="0 0 20 20" fill="none" xmlns="http://www.w3.org/2000/svg">
<path d="M8.295 1.84208C9.40632 1.60945 10.5672 1.60211 11.7041 1.83979C11.8516 2.80608 12.4207 3.69902 13.3331 4.22578C14.2454 4.75253 15.3033 4.79895 16.2138 4.4435C16.9882 5.30923 17.5622 6.31828 17.9164 7.39702C17.1543 8.0079 16.6664 8.94658 16.6664 9.99925C16.6664 11.0526 17.1549 11.9918 17.9177 12.6026C17.7417 13.1363 17.5087 13.6601 17.2166 14.1659C16.9245 14.6718 16.5874 15.1355 16.2132 15.5548C15.3028 15.1996 14.2452 15.2462 13.3331 15.7728C12.4214 16.2991 11.8525 17.1911 11.7044 18.1565C10.5932 18.3891 9.43224 18.3964 8.29535 18.1588C8.14789 17.1925 7.57875 16.2995 6.66638 15.7728C5.75402 15.246 4.69615 15.1996 3.78559 15.5551C3.0113 14.6893 2.4372 13.6803 2.08302 12.6015C2.84509 11.9907 3.33305 11.0519 3.33305 9.99925C3.33305 8.946 2.84452 8.00681 2.0817 7.39595C2.25776 6.86227 2.49077 6.33849 2.78284 5.83261C3.07491 5.32673 3.41201 4.86305 3.78616 4.44373C4.6966 4.79893 5.75421 4.75242 6.66638 4.22578C7.57802 3.69943 8.14699 2.8075 8.295 1.84208ZM9.99974 12.4993C11.3804 12.4993 12.4997 11.38 12.4997 9.99925C12.4997 8.61858 11.3804 7.49928 9.99974 7.49928C8.61899 7.49928 7.49971 8.61858 7.49971 9.99925C7.49971 11.38 8.61899 12.4993 9.99974 12.4993Z" fill="black"/>
</svg>
