<svg width="89" height="87" viewBox="0 0 89 87" fill="none" xmlns="http://www.w3.org/2000/svg">
<path d="M21.4204 48.5097L37.8992 64.9934L31.3132 71.5836L37.9076 78.1812L31.3148 84.7737L19.7795 73.2347L6.59262 86.4216L0 79.8291L13.1869 66.6422L1.64818 55.1069L8.24075 48.5144L14.8318 55.1018L21.4204 48.5097ZM2.54503 0L19.0752 0.0156167L74.1637 55.1041L80.759 48.5144L87.352 55.1069L75.8149 66.6441L88.9999 79.8291L82.4074 86.4216L69.2223 73.2366L57.6852 84.7737L51.0927 78.1812L57.6824 71.5854L2.55781 16.4612L2.54503 0ZM69.9398 0.000465688L86.4551 0.0156167L86.464 16.4393L67.5707 35.3265L51.0871 18.8476L69.9398 0.000465688Z" fill="#00B2CA"/>
</svg>
